<svg width="24" height="24" viewBox="0 0 24 24" fill="none" xmlns="http://www.w3.org/2000/svg">
<mask id="mask0_302_4127" style="mask-type:alpha" maskUnits="userSpaceOnUse" x="1" y="1" width="22" height="22">
<path fill-rule="evenodd" clip-rule="evenodd" d="M1 12C1 5.92487 5.92487 1 12 1C18.0751 1 23 5.92487 23 12C23 12.1715 22.9961 12.3421 22.9883 12.5117L22.9819 12.5181C22.8804 14.028 22.3381 16.1619 21 17.5C19.5 19 17 19 16 18.5C15.2362 18.1181 14.1806 17.4444 13.7246 16.4791C13.0546 16.8125 12.2992 17 11.5 17C8.73858 17 6.5 14.7614 6.5 12C6.5 9.23858 8.73858 7 11.5 7C12.4127 7 13.2683 7.24454 14.0048 7.67168C14.3711 7.25961 14.9052 7 15.5 7H16.5V12V13.5V15C16.5 16 19 16.5 19.6 14.5L19.6021 14.4984C19.8603 13.7123 20 12.8725 20 12C20 7.58172 16.4183 4 12 4C7.58172 4 4 7.58172 4 12C4 16.4183 7.58172 20 12 20C12.6388 20 13.2602 19.9251 13.8558 19.7837L15.5986 22.3979C14.471 22.7881 13.2603 23 12 23C5.92487 23 1 18.0751 1 12ZM13.5 12C13.5 10.8954 12.6046 10 11.5 10C10.3954 10 9.5 10.8954 9.5 12C9.5 13.1046 10.3954 14 11.5 14C12.6046 14 13.5 13.1046 13.5 12Z" fill="url(#paint0_linear_302_4127)"/>
</mask>
<g mask="url(#mask0_302_4127)">
<path d="M0 0H24V24H0V0Z" fill="#D9DDE1"/>
</g>
<defs>
<linearGradient id="paint0_linear_302_4127" x1="4.3" y1="4.3" x2="19.7" y2="19.7" gradientUnits="userSpaceOnUse">
<stop/>
<stop offset="1" stop-opacity="0.7"/>
</linearGradient>
</defs>
</svg>
