<svg width="1805" height="64" viewBox="0 0 1805 64" fill="none" xmlns="http://www.w3.org/2000/svg">
<path d="M1783.8 -9.15527e-05H21.2999C9.59995 -9.15527e-05 0.199951 9.49991 0.199951 21.0999V42.2999V63.3999H21.2999H1783.8H1804.9V42.3999V21.1999C1804.9 9.49991 1795.5 -9.15527e-05 1783.8 -9.15527e-05Z" fill="#B5BDC7"/>
<path d="M49.8999 38.9999C54.042 38.9999 57.3999 35.642 57.3999 31.4999C57.3999 27.3578 54.042 23.9999 49.8999 23.9999C45.7578 23.9999 42.3999 27.3578 42.3999 31.4999C42.3999 35.642 45.7578 38.9999 49.8999 38.9999Z" fill="white"/>
<path d="M76.313 38.9999C80.4551 38.9999 83.813 35.642 83.813 31.4999C83.813 27.3578 80.4551 23.9999 76.313 23.9999C72.1709 23.9999 68.813 27.3578 68.813 31.4999C68.813 35.642 72.1709 38.9999 76.313 38.9999Z" fill="white"/>
<path d="M102.808 38.9999C106.95 38.9999 110.308 35.642 110.308 31.4999C110.308 27.3578 106.95 23.9999 102.808 23.9999C98.6655 23.9999 95.3076 27.3578 95.3076 31.4999C95.3076 35.642 98.6655 38.9999 102.808 38.9999Z" fill="white"/>
</svg>
