<svg width="413" height="132" viewBox="0 0 413 132" fill="none" xmlns="http://www.w3.org/2000/svg">
<rect x="24.4481" y="21.396" width="388.351" height="109.627" fill="white"/>
<path d="M77.3558 95.3162H89.8833V66.1659H107.088V55.5581H60.1515V66.1659H77.3558V95.3162Z" fill="black"/>
<path d="M124.629 95.3162V55.5581H112.101V95.3162H124.629Z" fill="black"/>
<path d="M144.987 55.5581H133.796V95.3162H145.321V73.349L166.785 95.3162H177.475V55.5581H165.95V77.3583L144.987 55.5581Z" fill="black"/>
<path d="M198.756 80.2816H202.097L216.545 95.3162H232.664L212.536 74.6019L231.912 55.5581H216.712L202.097 70.5092H198.756V55.5581H186.646V95.3162H198.756V80.2816Z" fill="black"/>
<path d="M257.581 54.4723C241.296 54.4723 231.524 63.6601 231.524 75.5207C231.524 87.3813 241.296 96.5691 257.581 96.5691C273.784 96.5691 283.555 87.3813 283.555 75.5207C283.555 63.6601 273.784 54.4723 257.581 54.4723ZM257.581 86.8802C249.48 86.8802 244.302 82.0357 244.302 75.5207C244.302 69.0057 249.48 64.2448 257.581 64.2448C265.599 64.2448 270.86 69.0057 270.86 75.5207C270.86 82.0357 265.599 86.8802 257.581 86.8802Z" fill="black"/>
<path d="M329.146 65.6647V55.5581H289.309V95.3162H301.419V81.2004H328.144V72.8479H301.419V65.6647H329.146Z" fill="black"/>
<path d="M373.922 65.6647V55.5581H334.085V95.3162H346.195V81.2004H372.92V72.8479H346.195V65.6647H373.922Z" fill="black"/>
<path fill-rule="evenodd" clip-rule="evenodd" d="M22.6477 10.0645L32.9291 6.76163L35.7212 6.2038C39.0124 5.45771 41.2212 5.2038 41.2212 5.2038L43.3293 4.91834L52.9071 4.00606C53.6942 3.9311 54.4199 4.56136 54.3902 5.35138C54.3203 7.21356 53.6629 9.67825 48.9959 10.483C42.8874 11.5363 39.8626 12.3792 39.6432 12.8181C37.4051 17.909 25.0722 46.046 24.2823 48.6873C23.641 50.8316 19.4056 57.4738 18.0891 52.0756C16.7726 46.6775 29.6379 15.7147 30.4278 14.2664C30.8744 13.4474 25.6253 15.0539 21.9976 16.2368C21.4914 16.4018 20.9761 16.4218 20.4948 16.3214C17.4829 24.929 13.3813 36.176 11.1869 41.4456C10.7948 42.3874 10.1831 43.2078 9.41686 43.8814L7.06185 45.9515C5.70897 47.1407 3.6293 45.8884 4.05688 44.1387C7.14309 31.509 13.2516 7.05461 14.5797 6.52334C16.5544 5.73336 24.19 3.62676 24.19 5.07505C24.19 5.3519 23.5958 7.2453 22.6477 10.0645ZM68.2649 21.5732C68.2443 24.4517 68.1406 27.7857 67.6175 31.7966C67.2788 34.3935 66.1902 34.1608 64.4517 33.7892C64.051 33.7035 63.6158 33.6105 63.1472 33.543C62.1752 32.7648 61.0079 29.2441 60.6401 28.11C60.1216 28.3993 59.4036 28.693 58.6113 29.0172C55.9172 30.1195 52.3642 31.5731 52.8729 34.395C53.3847 37.2342 58.1903 37.3298 62.5929 37.4175C63.8528 37.4426 65.0798 37.467 66.1636 37.5549C71.0346 37.9499 72.0878 39.7932 71.6929 43.2164C71.3429 46.2495 55.9031 50.4197 47.4437 52.7045C46.3558 52.9984 45.3834 53.261 44.5733 53.486C41.3209 54.3896 40.3533 53.499 40.3754 52.1686C40.412 49.9613 42.6667 48.5975 44.7525 47.8745C45.5386 47.6019 46.3643 47.318 47.2053 47.0287L47.2055 47.0287C53.6595 44.8091 61.0211 42.2773 58.4021 42.1979C54.0577 42.0662 46.5084 39.6051 45.8898 34.395C45.2373 28.9 53.8383 23.1507 58.7971 20.6053C59.0446 20.4927 59.365 20.3544 59.7874 20.172C60.1887 19.9987 60.6821 19.7856 61.2926 19.5171C62.5149 18.9796 64.4652 18.9405 66.2474 19.1525C67.4476 19.2953 68.2735 20.3646 68.2649 21.5732ZM45.5622 25.3073C47.3603 23.2983 49.741 20.6385 49.4352 19.0329C48.9086 16.268 44.8716 12.9337 43.9501 14.1186C43.0286 15.3036 40.878 22.5878 41.1413 24.8261C41.2773 25.9817 41.7314 26.6401 42.4728 26.9616C43.3403 27.3379 44.2796 26.7571 44.9039 26.0469C45.1091 25.8136 45.3308 25.5658 45.5622 25.3073Z" fill="#FFDD2D"/>
<path fill-rule="evenodd" clip-rule="evenodd" d="M18.6477 6.06449L28.9291 2.76163L31.7212 2.2038C35.0124 1.45771 37.2212 1.2038 37.2212 1.2038L39.3293 0.918336L48.9071 0.0060606C49.6942 -0.0689015 50.4199 0.561362 50.3902 1.35138C50.3203 3.21356 49.6629 5.67825 44.9959 6.483C38.8874 7.5363 35.8626 8.37921 35.6432 8.81808C33.4051 13.909 21.0722 42.046 20.2823 44.6873C19.641 46.8316 15.4056 53.4738 14.0891 48.0756C12.7726 42.6775 25.6379 11.7147 26.4278 10.2664C26.8744 9.44742 21.6253 11.0539 17.9976 12.2368C17.4914 12.4018 16.9761 12.4218 16.4948 12.3214C13.4829 20.929 9.38126 32.176 7.18695 37.4456C6.79479 38.3874 6.18307 39.2078 5.41686 39.8814L3.06185 41.9515C1.70897 43.1407 -0.370699 41.8884 0.05688 40.1387C3.14309 27.509 9.25165 3.05461 10.5797 2.52334C12.5544 1.73336 20.19 -0.373235 20.19 1.07505C20.19 1.3519 19.5958 3.2453 18.6477 6.06449ZM64.2649 17.5732C64.2443 20.4517 64.1406 23.7857 63.6175 27.7966C63.2788 30.3935 62.1902 30.1608 60.4517 29.7892C60.051 29.7035 59.6158 29.6105 59.1472 29.543C58.1752 28.7648 57.0079 25.2441 56.6401 24.11C56.1216 24.3993 55.4036 24.693 54.6113 25.0172C51.9172 26.1195 48.3642 27.5731 48.8729 30.395C49.3847 33.2342 54.1903 33.3298 58.5929 33.4175C59.8528 33.4426 61.0798 33.467 62.1636 33.5549C67.0346 33.9499 68.0878 35.7932 67.6929 39.2164C67.3429 42.2495 51.9031 46.4197 43.4437 48.7045C42.3558 48.9984 41.3834 49.261 40.5733 49.486C37.3209 50.3896 36.3533 49.499 36.3754 48.1686C36.412 45.9613 38.6667 44.5975 40.7525 43.8745C41.5386 43.6019 42.3643 43.318 43.2053 43.0287L43.2055 43.0287C49.6595 40.8091 57.0211 38.2773 54.4021 38.1979C50.0577 38.0662 42.5084 35.6051 41.8898 30.395C41.2373 24.9 49.8383 19.1507 54.7971 16.6053C55.0446 16.4927 55.365 16.3544 55.7874 16.172C56.1887 15.9987 56.6821 15.7856 57.2926 15.5171C58.5149 14.9796 60.4652 14.9405 62.2474 15.1525C63.4476 15.2953 64.2735 16.3646 64.2649 17.5732ZM41.5622 21.3073C43.3603 19.2983 45.741 16.6385 45.4352 15.0329C44.9086 12.268 40.8716 8.93366 39.9501 10.1186C39.0286 11.3036 36.878 18.5878 37.1413 20.8261C37.2773 21.9817 37.7314 22.6401 38.4728 22.9616C39.3403 23.3379 40.2796 22.7571 40.9039 22.0469C41.1091 21.8136 41.3308 21.5658 41.5622 21.3073Z" fill="black"/>
</svg>
